<svg width="565" height="275" viewBox="0 0 565 275" fill="none" xmlns="http://www.w3.org/2000/svg">
<path d="M125.349 273.419V275H23.6508V273.419H125.349ZM147.423 251.292V87.7079C147.423 75.4873 137.54 65.5805 125.349 65.5805H23.6508C11.4596 65.5805 1.57672 75.4873 1.57672 87.7079V251.292C1.57672 263.513 11.4596 273.419 23.6508 273.419V275L23.0403 274.992C10.4633 274.673 0.326379 264.511 0.00769883 251.904L0 251.292V87.7079C0 74.6144 10.5888 64 23.6508 64H125.349C138.411 64 149 74.6144 149 87.7079V251.292C149 264.181 138.74 274.668 125.96 274.992L125.349 275V273.419C137.54 273.419 147.423 263.513 147.423 251.292Z" fill="#9EC8FF"/>
<path d="M333.19 209.419V211H230.81V209.419H333.19ZM355.413 187.292V23.7079C355.413 11.4873 345.463 1.58052 333.19 1.58052H230.81C218.537 1.58052 208.587 11.4873 208.587 23.7079V187.292C208.587 199.513 218.537 209.419 230.81 209.419V211L230.195 210.992C217.534 210.673 207.329 200.511 207.008 187.904L207 187.292V23.7079C207 10.6144 217.66 4.39128e-07 230.81 0H333.19C346.34 0 357 10.6144 357 23.7079V187.292C357 200.181 346.671 210.668 333.805 210.992L333.19 211V209.419C345.463 209.419 355.413 199.513 355.413 187.292Z" fill="#9EC8FF"/>
<path d="M541.19 273.419V275H438.81V273.419H541.19ZM563.413 251.292V87.7079C563.413 75.4873 553.463 65.5805 541.19 65.5805H438.81C426.537 65.5805 416.587 75.4873 416.587 87.7079V251.292C416.587 263.513 426.537 273.419 438.81 273.419V275L438.195 274.992C425.534 274.673 415.329 264.511 415.008 251.904L415 251.292V87.7079C415 74.6144 425.66 64 438.81 64H541.19C554.34 64 565 74.6144 565 87.7079V251.292C565 264.181 554.671 274.668 541.805 274.992L541.19 275V273.419C553.463 273.419 563.413 263.513 563.413 251.292Z" fill="#9EC8FF"/>
<path d="M116.212 203.556V186.049H97.3097V120.796H75.2566L28.7876 186.049V203.556H75.2566V232.204H97.3097V203.556H116.212ZM75.2566 186.049H47.6903L75.2566 146.261V186.049ZM49.2032 185.254H74.469V148.785L49.2032 185.254ZM98.0973 185.254H117V204.352H98.0973V233H74.469V204.352H28V185.793L74.8528 120H98.0973V185.254Z" fill="#B0D2FF"/>
<path d="M325.204 106.5C325.204 82.3429 310.233 62.7946 283 62.7946C255.767 62.7946 240.796 82.3429 240.796 106.5L240.807 107.629C241.267 131.263 256.192 150.205 283 150.205C309.808 150.205 324.733 131.263 325.193 107.629L325.204 106.5ZM302.111 106.5C302.111 99.1125 300.69 92.5324 297.602 87.8243C294.544 83.1615 289.818 80.2768 283 80.2768C276.182 80.2768 271.456 83.1615 268.398 87.8243C265.31 92.5324 263.889 99.1125 263.889 106.5C263.889 113.888 265.31 120.468 268.398 125.176C271.456 129.839 276.182 132.723 283 132.723V133.518C269.047 133.518 263.274 121.814 263.096 107.198L263.093 106.5C263.093 91.5607 268.826 79.4821 283 79.4821C297.174 79.4821 302.907 91.5607 302.907 106.5L302.904 107.198C302.726 121.814 296.953 133.518 283 133.518V132.723C289.818 132.723 294.544 129.839 297.602 125.176C300.69 120.468 302.111 113.888 302.111 106.5ZM326 106.5C326 118.738 322.207 129.866 314.906 137.943C307.594 146.032 296.821 151 283 151C269.179 151 258.406 146.032 251.094 137.943C243.793 129.866 240 118.738 240 106.5C240 94.2617 243.793 83.1344 251.094 75.0565C258.406 66.9675 269.179 62 283 62C296.821 62 307.594 66.9675 314.906 75.0565C322.207 83.1344 326 94.2617 326 106.5Z" fill="#B0D2FF"/>
<path d="M534.212 196.817V179.465H515.31V114.789H493.257L446.788 179.465V196.817H493.257V225.211H515.31V196.817H534.212ZM493.257 179.465H465.69L493.257 140.028V179.465ZM467.203 178.676H492.469V142.53L467.203 178.676ZM516.097 178.676H535V197.606H516.097V226H492.469V197.606H446V179.211L492.853 114H516.097V178.676Z" fill="#B0D2FF"/>
<path d="M179.298 137.5C179.298 127.283 187.597 119 197.835 119H208V120.591H197.835C188.478 120.591 180.892 128.162 180.892 137.5C180.892 147.717 172.593 156 162.355 156H149V154.409H162.355C171.712 154.409 179.298 146.838 179.298 137.5Z" fill="#9EC8FF"/>
<path d="M146.325 149.751C147.252 148.824 148.755 148.824 149.682 149.751L153.205 153.275C154.132 154.202 154.132 155.705 153.205 156.631L149.682 160.155C148.755 161.082 147.252 161.082 146.325 160.155L142.802 156.631C141.875 155.705 141.875 154.202 142.802 153.275L146.325 149.751Z" fill="#9EC8FF"/>
<path d="M206.457 114.58C207.384 113.653 208.887 113.653 209.814 114.58L213.337 118.103C214.264 119.03 214.264 120.533 213.337 121.46L209.814 124.983C208.887 125.91 207.384 125.91 206.457 124.983L202.934 121.46C202.007 120.533 202.007 119.03 202.934 118.103L206.457 114.58Z" fill="#9EC8FF"/>
<path d="M387.297 137.5C387.297 147.717 395.597 156 405.835 156H416V154.409H405.835C396.477 154.409 388.892 146.838 388.892 137.5C388.892 127.283 380.593 119 370.355 119H357V120.591H370.355C379.712 120.591 387.297 128.162 387.297 137.5Z" fill="#9EC8FF"/>
<path d="M354.413 124.983C355.34 125.91 356.843 125.91 357.77 124.983L361.293 121.46C362.22 120.533 362.22 119.03 361.293 118.103L357.77 114.58C356.843 113.653 355.34 113.653 354.413 114.58L350.89 118.103C349.963 119.03 349.963 120.533 350.89 121.46L354.413 124.983Z" fill="#9EC8FF"/>
<path d="M414.544 160.155C415.471 161.082 416.974 161.082 417.901 160.155L421.424 156.631C422.351 155.705 422.351 154.202 421.424 153.275L417.901 149.751C416.974 148.824 415.471 148.824 414.544 149.751L411.021 153.275C410.094 154.202 410.094 155.705 411.021 156.631L414.544 160.155Z" fill="#9EC8FF"/>
</svg>
