<svg width="104" height="104" viewBox="0 0 104 104" fill="none" xmlns="http://www.w3.org/2000/svg">
<rect x="0.5" y="0.5" width="103" height="103" rx="11.5" fill="black"/>
<rect x="0.5" y="0.5" width="103" height="103" rx="11.5" stroke="white"/>
<mask id="mask0_1_70" style="mask-type:luminance" maskUnits="userSpaceOnUse" x="0" y="0" width="104" height="104">
<path d="M96.72 0H7.28C3.25937 0 0 3.25937 0 7.28V96.72C0 100.741 3.25937 104 7.28 104H96.72C100.741 104 104 100.741 104 96.72V7.28C104 3.25937 100.741 0 96.72 0Z" fill="white"/>
</mask>
<g mask="url(#mask0_1_70)">
<path d="M-8.3871 127.484L14.3807 19.6365C15.9724 12.0963 22.5353 6.70967 30.1299 6.70967H73.471C82.5291 6.70967 89.2947 9.28166 93.7677 14.4258C98.3526 19.6817 100.645 26.1118 100.645 33.7162C100.645 40.7613 98.9118 47.5268 95.4452 54.0129C91.8667 60.7225 86.8344 66.1462 80.3484 70.2838C73.5269 74.5333 65.8107 76.6581 57.2 76.6581H18.7871L8.05162 127.484H-8.3871ZM36.547 20.9677C33.0379 20.9677 30.0066 23.4593 29.2759 26.9443L21.8064 62.5677H55.8581C61.0022 62.5677 65.7548 61.3936 70.1161 59.0452C74.3655 56.6967 77.7204 53.4538 80.1807 49.3162C82.5291 45.0667 83.7033 40.4258 83.7033 35.3935C83.7033 25.7764 77.8882 20.9677 66.2581 20.9677H36.547Z" fill="white"/>
<path d="M84.0854 93.8912H86.3318C86.3318 93.8912 86.3318 95.3888 88.1622 95.3888C89.4102 95.3888 89.743 94.8064 89.743 94.3072C89.743 92.4768 84.2518 93.8912 84.2518 90.5632C84.2518 89.0656 85.6662 87.8176 87.9958 87.8176C91.3238 87.8176 91.823 89.7312 91.823 90.5632H89.5766C89.5766 90.5632 89.5766 89.3984 87.9958 89.3984C87.0806 89.3984 86.5814 89.8643 86.5814 90.3968C86.5814 91.8944 92.0726 90.8128 92.0726 94.0576C92.0726 95.7216 90.6582 96.9696 88.1622 96.9696C84.751 96.9696 84.0854 94.8896 84.0854 93.8912Z" fill="#9EC8FF"/>
<path d="M75.0178 92.3936C75.0178 89.8643 76.4988 87.8176 79.3442 87.8176C82.1896 87.8176 83.5042 89.8643 83.5042 92.3936C83.5042 92.5933 83.4875 92.8928 83.4875 92.8928H77.364C77.4639 94.224 78.0296 95.2224 79.4274 95.2224C80.8418 95.2224 81.0914 93.8912 81.0914 93.8912H83.421C83.421 93.8912 82.9218 96.9696 79.3442 96.9696C76.4322 96.9696 75.0178 94.9229 75.0178 92.3936ZM79.3442 89.5648C78.196 89.5648 77.6303 90.3302 77.4306 91.3952H81.108C80.9583 90.3302 80.4924 89.5648 79.3442 89.5648Z" fill="#9EC8FF"/>
<path d="M74.2638 85.072V96.72H72.0174V95.5552H71.9342C71.9342 95.5552 71.1854 96.9696 69.2718 96.9696C66.7758 96.9696 65.5278 94.8064 65.5278 92.3936C65.5278 89.9808 66.7758 87.8176 69.2718 87.8176C71.1022 87.8176 71.851 88.9824 71.851 88.9824H71.9342V85.072H74.2638ZM72.0174 92.3936C72.0174 90.8294 71.3518 89.5648 69.9374 89.5648C68.523 89.5648 67.8574 90.8294 67.8574 92.3936C67.8574 93.9577 68.523 95.2224 69.9374 95.2224C71.3518 95.2224 72.0174 93.9577 72.0174 92.3936Z" fill="#9EC8FF"/>
<path d="M58.3674 92.3936C58.3674 93.9578 58.9664 95.2224 60.4474 95.2224C61.9283 95.2224 62.5274 93.9578 62.5274 92.3936C62.5274 90.8294 61.9283 89.5648 60.4474 89.5648C58.9664 89.5648 58.3674 90.8294 58.3674 92.3936ZM56.0378 92.3936C56.0378 89.8643 57.6019 87.8176 60.4474 87.8176C63.2928 87.8176 64.857 89.8643 64.857 92.3936C64.857 94.9229 63.2928 96.9696 60.4474 96.9696C57.6019 96.9696 56.0378 94.9229 56.0378 92.3936Z" fill="#9EC8FF"/>
<path d="M47.216 96.72V88.0672H49.4624V89.4816H49.5456C49.5456 89.4816 50.2944 87.8176 52.208 87.8176C54.6208 87.8176 55.2864 89.3984 55.2864 91.3952V96.72H52.9568V91.8944C52.9568 90.3968 52.5408 89.7312 51.4592 89.7312C50.2112 89.7312 49.5456 90.48 49.5456 92.2272V96.72H47.216Z" fill="#9EC8FF"/>
</g>
</svg>
