<svg width="96" height="27" viewBox="0 0 96 27" fill="none" xmlns="http://www.w3.org/2000/svg">
<path d="M1.19209e-07 25.884L5.544 -2.93255e-05H17.172C19.476 -2.93255e-05 21.156 0.563971 22.212 1.69197C23.244 2.81997 23.76 4.31997 23.76 6.19197C23.76 7.96797 23.316 9.65997 22.428 11.268C21.54 12.876 20.316 14.148 18.756 15.084C17.22 16.044 15.516 16.524 13.644 16.524H7.38L5.436 25.884H1.19209e-07ZM8.316 12.096H13.644C14.556 12.096 15.348 11.868 16.02 11.412C16.428 11.124 16.752 10.86 16.992 10.62C17.304 10.284 17.544 9.94797 17.712 9.61197C18.096 8.86797 18.288 8.05197 18.288 7.16397C18.288 6.22797 18 5.53197 17.424 5.07597C16.848 4.64397 15.936 4.42797 14.688 4.42797H9.936L8.316 12.096Z" fill="white"/>
<path d="M31.2624 25.884V13.404H34.5024V15.444H34.6224C34.6224 15.444 35.7024 13.044 38.4624 13.044C41.9424 13.044 42.9024 15.324 42.9024 18.204V25.884H39.5424V18.924C39.5424 16.764 38.9424 15.804 37.3824 15.804C35.5824 15.804 34.6224 16.884 34.6224 19.404V25.884H31.2624ZM47.3462 19.644C47.3462 21.9 48.2102 23.724 50.3462 23.724C52.4822 23.724 53.3462 21.9 53.3462 19.644C53.3462 17.388 52.4822 15.564 50.3462 15.564C48.2102 15.564 47.3462 17.388 47.3462 19.644ZM43.9862 19.644C43.9862 15.996 46.2422 13.044 50.3462 13.044C54.4502 13.044 56.7062 15.996 56.7062 19.644C56.7062 23.292 54.4502 26.244 50.3462 26.244C46.2422 26.244 43.9862 23.292 43.9862 19.644ZM70.2737 9.08397V25.884H67.0337V24.204H66.9137C66.9137 24.204 65.8337 26.244 63.0737 26.244C59.4737 26.244 57.6737 23.124 57.6737 19.644C57.6737 16.164 59.4737 13.044 63.0737 13.044C65.7137 13.044 66.7937 14.724 66.7937 14.724H66.9137V9.08397H70.2737ZM67.0337 19.644C67.0337 17.388 66.0737 15.564 64.0337 15.564C61.9937 15.564 61.0337 17.388 61.0337 19.644C61.0337 21.9 61.9937 23.724 64.0337 23.724C66.0737 23.724 67.0337 21.9 67.0337 19.644ZM71.3612 19.644C71.3612 15.996 73.4972 13.044 77.6012 13.044C81.7052 13.044 83.6012 15.996 83.6012 19.644C83.6012 19.932 83.5772 20.364 83.5772 20.364H74.7452C74.8892 22.284 75.7052 23.724 77.7212 23.724C79.7612 23.724 80.1212 21.804 80.1212 21.804H83.4812C83.4812 21.804 82.7612 26.244 77.6012 26.244C73.4012 26.244 71.3612 23.292 71.3612 19.644ZM77.6012 15.564C75.9452 15.564 75.1292 16.668 74.8412 18.204H80.1452C79.9292 16.668 79.2572 15.564 77.6012 15.564ZM84.4393 21.804H87.6793C87.6793 21.804 87.6793 23.964 90.3193 23.964C92.1193 23.964 92.5993 23.124 92.5993 22.404C92.5993 19.764 84.6793 21.804 84.6793 17.004C84.6793 14.844 86.7193 13.044 90.0793 13.044C94.8793 13.044 95.5993 15.804 95.5993 17.004H92.3593C92.3593 17.004 92.3593 15.324 90.0793 15.324C88.7593 15.324 88.0393 15.996 88.0393 16.764C88.0393 18.924 95.9593 17.364 95.9593 22.044C95.9593 24.444 93.9193 26.244 90.3193 26.244C85.3993 26.244 84.4393 23.244 84.4393 21.804Z" fill="#9EC8FF"/>
</svg>
